<svg id="图层_1" data-name="图层 1" xmlns="http://www.w3.org/2000/svg" viewBox="0 0 200 40"><defs><style>.cls-1{fill:none;}.cls-2{fill:#fff;}.cls-3{fill:#ba2121;}.cls-4{isolation:isolate;}</style></defs><title>app-logo-on-light</title><path class="cls-1" d="M30.2,29.6a4.79,4.79,0,0,0-.5-3A10.09,10.09,0,0,1,28,30.4C29.2,30.5,30,30.3,30.2,29.6Z"/><path class="cls-2" d="M51.2,36.2H46.9V28.9H51v.8H48V32h2.9v.8H48v2.5h3.3v.9Z"/><path class="cls-2" d="M57.5,36.2h-1v-3c0-1.1-.4-1.6-1.3-1.6a1.55,1.55,0,0,0-1.5,1.7v3h-1V31h1v.9h0a2.06,2.06,0,0,1,1.9-1,1.68,1.68,0,0,1,1.4.6,2.54,2.54,0,0,1,.5,1.6Z"/><path class="cls-2" d="M59.1,36.2V28.4h1v7.8Z"/><path class="cls-2" d="M61.8,29.1a.52.52,0,0,1,.2-.4.76.76,0,0,1,.5-.2c.2,0,.3.1.5.2a.5.5,0,0,1,0,.8.76.76,0,0,1-.5.2c-.2,0-.3-.1-.5-.2A.52.52,0,0,1,61.8,29.1Zm.2,7.1V31h1v5.2Z"/><path class="cls-2" d="M67.5,36.2a2,2,0,0,1-.9.2c-1,0-1.5-.5-1.5-1.6v-3h-1V31h1V29.7l1-.3V31h1.4v.8H66.1v2.9a1.17,1.17,0,0,0,.2.7.85.85,0,0,0,.6.2,1.42,1.42,0,0,0,.6-.2Z"/><path class="cls-2" d="M73.3,33.8h-4a1.73,1.73,0,0,0,.5,1.3,1.9,1.9,0,0,0,1.3.5,3.23,3.23,0,0,0,1.8-.6v.8a3.94,3.94,0,0,1-2,.5,2.35,2.35,0,0,1-1.9-.7,2.58,2.58,0,0,1-.7-2,2.79,2.79,0,0,1,.8-2,2.56,2.56,0,0,1,1.9-.8,2.41,2.41,0,0,1,1.8.7,2.33,2.33,0,0,1,.6,1.8v.5Zm-1-.7a1.37,1.37,0,0,0-.4-1.1,1.45,1.45,0,0,0-2,0,2,2,0,0,0-.6,1.1Z"/><path class="cls-2" d="M79.5,36.2h-1v-3c0-1.1-.4-1.6-1.3-1.6a1.55,1.55,0,0,0-1.5,1.7v3h-1V31h1v.9h0a2.06,2.06,0,0,1,1.9-1,1.68,1.68,0,0,1,1.4.6,2.54,2.54,0,0,1,.5,1.6Z"/><path class="cls-2" d="M84,35.7a.52.52,0,0,1,.2-.4.71.71,0,0,1,1.2.4.52.52,0,0,1-.2.4.76.76,0,0,1-.5.2c-.2,0-.3-.1-.5-.2S84,35.9,84,35.7Z"/><path class="cls-2" d="M90.8,36a3.77,3.77,0,0,1-1.6.4,2.72,2.72,0,0,1-2-.7,2.56,2.56,0,0,1-.8-1.9,2.86,2.86,0,0,1,.8-2.1,3.11,3.11,0,0,1,2.2-.8,2.5,2.5,0,0,1,1.3.3V32a2.2,2.2,0,0,0-1.3-.4,1.82,1.82,0,0,0-1.4.6,2,2,0,0,0,1.4,3.4,2.3,2.3,0,0,0,1.4-.4Z"/><path class="cls-2" d="M97,36.2H96v-3c0-1.1-.4-1.6-1.3-1.6a1.55,1.55,0,0,0-1.5,1.7v3h-1V31h1v.9h0a2.06,2.06,0,0,1,1.9-1,1.68,1.68,0,0,1,1.4.6,2.54,2.54,0,0,1,.5,1.6Z"/><path class="cls-3" d="M34.9,31.1h0c0,.1-.1.1-.1.2l-1.5,1.8a20.7,20.7,0,0,1-4.2,3.1,7.74,7.74,0,0,1-1.6.7c-.4.2-.8.3-1.2.5-.1,0-.1.1-.2.1s-.4.1-.6.2a6.37,6.37,0,0,1-.7.2c-.3.1-.5.1-.8.2s-.4.1-.6.1-.4.1-.6.1H18.4a20.92,20.92,0,0,1-3.4-.8,17.62,17.62,0,0,1-3.9-1.9,21.8,21.8,0,0,1-4-3.4,15.66,15.66,0,0,1-2.8-4.4,14.22,14.22,0,0,1-1.1-3.3,10.26,10.26,0,0,1-.4-1.4c0-.3-.1-.5-.1-.8a1.27,1.27,0,0,0-.1-.6v-4c0-.2.1-.4.1-.7s.1-.5.1-.7c.2-.8.4-1.5.6-2.2a18.89,18.89,0,0,1,1.1-2.5c.5-.9,1.1-1.8,1.7-2.7a23.8,23.8,0,0,1,4.9-4,10.93,10.93,0,0,1,1.5-.8.1.1,0,0,0,.1-.1h0a4.67,4.67,0,0,0-.5,1c-.1.3-.2.5-.3.8s-.3.7-.4,1a20.16,20.16,0,0,0-.7,2.3,16,16,0,0,0-.5,2.1,2.77,2.77,0,0,0-.1.9c0,.3-.1.5-.1.8a4.87,4.87,0,0,0-.1,1.2v2a.75.75,0,0,0,.1.5.75.75,0,0,0,.1.5c0,.3.1.5.1.7a12.09,12.09,0,0,0,.5,1.8,3.7,3.7,0,0,0,.5,1.1,33.71,33.71,0,0,0,1.9,3.2,20,20,0,0,0,1.9,2.2A17.57,17.57,0,0,0,18.8,29a17.62,17.62,0,0,0,3.9,1.9c.6.2,1.2.4,1.9.6a4.25,4.25,0,0,0,1.1.2c.2,0,.5.1.7.1a4.33,4.33,0,0,1,.5.1,1.27,1.27,0,0,1,.6.1h3.8c.2,0,.5-.1.7-.1a12.09,12.09,0,0,0,1.8-.5l.6-.3a.45.45,0,0,0,.5,0Z"/><path class="cls-3" d="M38.8,20.1V21a2.2,2.2,0,0,1-.1.8c-.1.5-.2.9-.3,1.3a3.79,3.79,0,0,1-.6,1.3,4.88,4.88,0,0,1-2.5,2.2,2.66,2.66,0,0,1-1.2.3c-.2,0-.5.1-.7.1H31.6c-.2,0-.5-.1-.7-.1s-.5-.1-.8-.2c-.6-.2-1.1-.4-1.7-.6-.8-.4-1.6-.8-2.4-1.3a9.91,9.91,0,0,1-1.7-1.1,28.48,28.48,0,0,1-2.6-2.3c-.5-.5-.9-1-1.4-1.6s-1.1-1.4-1.6-2.2-1-1.6-1.4-2.4a16,16,0,0,1-1-2.3,12.09,12.09,0,0,1-.5-1.8c-.1-.3-.1-.6-.2-.9s-.1-.6-.1-.8a1.7,1.7,0,0,0-.1-.7V7.1c0-.3.1-.6.1-.8a4.67,4.67,0,0,0,.5-1,4.13,4.13,0,0,1,.7-1.1,5,5,0,0,1,2.2-1.6l.9-.3a.6.6,0,0,0,.4-.1H23c.3,0,.5.1.8.1a13.32,13.32,0,0,1,1.9.5,19.43,19.43,0,0,1,3.6,1.5,16,16,0,0,1,3.1,2.2l.1.1h0l-.1-.1-1.2-.6a8.8,8.8,0,0,0-1.5-.5c-.2,0-.4-.1-.6-.1a.75.75,0,0,1-.5-.1h-.7a2.84,2.84,0,0,0-1.3.4,2.73,2.73,0,0,0-.9,1.2.75.75,0,0,0-.1.5,1.7,1.7,0,0,0,0,1v.3c0,.3.1.5.1.8a4.42,4.42,0,0,0,.6,1.6,13.16,13.16,0,0,0,1.9,2.9,11.33,11.33,0,0,0,2.7,2.2,5.09,5.09,0,0,0,1.7.7c.2.1.4.1.6.2s.4.1.6.1h.3a2,2,0,0,0,1.1-.3,2.36,2.36,0,0,0,.9-.8,3,3,0,0,0,.4-.8,2.2,2.2,0,0,0,.1-.8v-.9a1.7,1.7,0,0,0-.1-.7,8.3,8.3,0,0,0-.6-2.1v-.1h0l.1.1a4.35,4.35,0,0,1,.4.7,17.85,17.85,0,0,1,1.8,4.3c.1.4.2.8.3,1.3a2.2,2.2,0,0,1,.1.8c0,.2.1.5.1.7a1.7,1.7,0,0,0,.1.7h0Z"/><g class="cls-4"><path class="cls-2" d="M63.36,20.38a20.67,20.67,0,0,0-.74,2.29c-.76,0-2.48,0-5.14,0h-3a10.17,10.17,0,0,1-3.08-.41,5.21,5.21,0,0,1-2.15-1.24l-2,2.05-1-2.63c.61-.59,1.2-1.13,1.77-1.61V14.41H46.34V12.22h3.91v6.86a5.29,5.29,0,0,0,4,1.42Q61.72,20.5,63.36,20.38ZM48.68,6.3c.86,1.12,1.64,2.18,2.32,3.17l-2,1.36c-.7-1.2-1.42-2.33-2.15-3.39Zm2.26,7.54H53.4c0-.39.05-1.38.05-3H51.59V8.81h1.86V6.2h2.31V8.81h2.58V6.2h2.3V8.81h1.85v2.07H60.64v3h2.52V15.9H60.64V20h-2.3V15.9H55.5A12.08,12.08,0,0,1,54,20.28a24.2,24.2,0,0,0-2.24-1.73A7,7,0,0,0,53,15.9h-2.1Zm4.78,0h2.62v-3H55.76C55.76,12,55.74,13,55.72,13.84Z"/><path class="cls-2" d="M67.69,23.05V17.31c-.59.2-1.19.39-1.81.57-.25-.56-.6-1.25-1-2.08a34.55,34.55,0,0,0,6.35-2.05q-1.25-.95-2.1-1.5l1.69-1.54c1,.61,1.88,1.23,2.78,1.85A19.82,19.82,0,0,0,77.14,10h-7a20.91,20.91,0,0,1-3.66,3.13c-.39-.46-.91-1-1.55-1.72A17.23,17.23,0,0,0,70.12,6l2.68.19a14.94,14.94,0,0,1-.94,1.58h8.5V9.9a21.38,21.38,0,0,1-7.14,5.21H80.5V23H78v-.78H70.17v.83ZM78,17.26H70.17v2.81H78Z"/><path class="cls-2" d="M83.39,15.94a21.55,21.55,0,0,0,2-4.58H83.57V9.12h2v-3h2.19v3h1.67v2.24H87.75v.82c.58.46,1.16.93,1.73,1.43a22.92,22.92,0,0,0,3.24-2.7l1.57,1.38a21.43,21.43,0,0,1-3.7,3.15l-.69-.81L88.78,16c-.32-.41-.66-.83-1-1.24v8.33H85.56V15.83a24.11,24.11,0,0,1-1.62,3.26C83.78,18,83.6,17,83.39,15.94Zm9.88-1.52a14.54,14.54,0,0,0,1.67,2.63,11.39,11.39,0,0,0,1.54-2.66l2.11.83a13.37,13.37,0,0,1-2,3.46,11.53,11.53,0,0,0,4.12,2c-.59.94-1.06,1.73-1.41,2.34a12.19,12.19,0,0,1-4.42-2.61,15.85,15.85,0,0,1-4.61,2.75q-.58-.94-1.47-2.13a15,15,0,0,0,4.55-2.33,20.32,20.32,0,0,1-2-3.42ZM89.9,8.5h4.4c-.39-.67-.76-1.27-1.11-1.81L95.41,6q.5.81,1.29,2.19l-.87.29h4.43v2.14H89.9ZM97,10.84q1.74,1.32,3.64,2.86l-1.39,1.76q-1.75-1.61-3.63-3.07Z"/></g></svg>