<?xml version="1.0" encoding="utf-8"?>
<!-- Generator: Adobe Illustrator 23.1.0, SVG Export Plug-In . SVG Version: 6.00 Build 0)  -->
<svg version="1.1" id="图层_1" xmlns="http://www.w3.org/2000/svg" xmlns:xlink="http://www.w3.org/1999/xlink" x="0px" y="0px"
	 viewBox="0 0 200 40" style="enable-background:new 0 0 200 40;" xml:space="preserve">
<style type="text/css">
	.st0{fill:none;}
	.st1{fill:#230D05;}
	.st2{fill:#BA2121;}
	.st3{font-family:'MicrosoftYaHei-Bold';}
	.st4{font-size:17.6258px;}
	.st5{letter-spacing:1;}
</style>
<path class="st0" d="M30.2,29.6c0.2-0.9,0-1.9-0.5-3c-0.3,1.4-0.9,2.7-1.7,3.8C29.2,30.5,30,30.3,30.2,29.6z"/>
<g>
	<path class="st1" d="M71.2-37.7c1,1.5,2.8,2.4,5.4,2.7c-0.3,0.3-0.6,0.8-0.8,1.2c-2.7-0.4-4.5-1.5-5.6-3.4
		c-0.8,1.4-2.4,2.6-5.8,3.4c-0.2-0.3-0.5-0.8-0.8-1.1c3.3-0.7,4.7-1.7,5.3-2.8h-5v-1.2h1.4v-3.2h4v-1.6h1.4v1.5H75v3.2h1.3v1.2
		L71.2-37.7C71.2-37.8,71.2-37.7,71.2-37.7z M66.9-44.3H64v-1.2h2.9v-1.2h1.3v1.2h3.7v-1.2h1.3v1.2h2.9v1.2h-2.9v1.4h-1.3v-1.4h-3.7
		v1.4h-1.3V-44.3z M69.3-38.9c0-0.3,0-0.5,0-0.8V-41h-2.8v2.1C66.5-38.9,69.3-38.9,69.3-38.9z M70.7-41v1.3c0,0.3,0,0.5,0,0.8h3V-41
		H70.7z"/>
	<path class="st1" d="M81.6-38.4c-0.8,1.3-1.9,2.8-2.9,3.8c-0.3-0.2-0.8-0.6-1.1-0.8c1-0.9,2-2.2,2.7-3.4L81.6-38.4z M85-39.9v4.5
		c0,0.8-0.2,1.1-0.7,1.3s-1.3,0.3-2.5,0.2c-0.1-0.4-0.3-1-0.4-1.3c0.8,0,1.7,0,1.9,0c0.3,0,0.3-0.1,0.3-0.3v-4.4h-3.1
		c-0.9,0-1.5,0.1-1.7,0.2c-0.1-0.3-0.3-0.9-0.4-1.2c0.2-0.1,0.4-0.4,0.5-0.9s0.4-2.3,0.5-3.9c3.2-0.1,7-0.3,9.2-0.9l0.8,1.2
		c-2.3,0.5-5.7,0.8-8.7,0.9c-0.1,1.1-0.3,2.3-0.6,3.3h3.6v-2.6H85v2.6h4.9v1.3H85z M87.8-38.8c1,1.1,2.1,2.6,2.7,3.5l-1.2,0.6
		c-0.5-0.9-1.7-2.5-2.6-3.6L87.8-38.8z"/>
	<path class="st1" d="M102.7-41.7c0.5,0.6,1.2,1.1,2,1.4c-0.3,0.2-0.6,0.6-0.8,0.9c-0.5-0.2-1-0.6-1.5-1c-0.1,0.7-0.3,1.4-0.4,2h1.9
		c0,0,0,0.3,0,0.5c-0.2,2.3-0.4,3.3-0.8,3.6c-0.2,0.3-0.5,0.4-0.9,0.4c-0.3,0-0.9,0-1.6,0c0-0.3-0.1-0.7-0.3-1
		c0.6,0.1,1.2,0.1,1.4,0.1c0.2,0,0.4,0,0.5-0.1c0.2-0.2,0.4-0.9,0.5-2.4h-5.4c0.2-0.6,0.4-1.3,0.5-2l1.1,0.1
		c-0.1,0.3-0.1,0.6-0.2,0.9h2.2c0.1-0.4,0.2-0.8,0.3-1.3h-3.5V-40c-0.4,0.3-0.7,0.6-1.1,0.8c-0.1-0.2-0.4-0.5-0.6-0.7v4.7
		c0,0.6-0.1,0.9-0.4,1.1c-0.4,0.2-0.8,0.2-1.6,0.2c0-0.3-0.2-0.8-0.3-1.1c0.5,0,0.9,0,1.1,0s0.2,0,0.2-0.2v-3.2h-1.6
		c-0.1,1.6-0.3,3.3-0.8,4.6c-0.2-0.2-0.7-0.4-1-0.5c0.7-2,0.8-4.8,0.8-6.8v-5H96v5.9c0.7-0.4,1.2-0.9,1.7-1.4h-1.5v-1h2.2
		c0.2-0.3,0.4-0.6,0.5-1h-2.3v-1h1c-0.1-0.4-0.4-1.1-0.6-1.6l1-0.3c0.3,0.5,0.6,1.1,0.7,1.6l-0.9,0.3h1.5c0.2-0.6,0.3-1.3,0.4-2
		l1.2,0.1c-0.1,0.7-0.2,1.3-0.4,1.8h2l-0.8-0.3c0.2-0.5,0.5-1.1,0.7-1.6l1,0.4c-0.3,0.6-0.6,1.1-0.8,1.5h1.5v1h-4
		c-0.1,0.4-0.3,0.7-0.4,1h4.7v1H102.7z M94.8-39.7v-2.1h-1.5v0.6c0,0.5,0,1,0,1.5H94.8z M93.3-45v2h1.5v-2C94.8-45,93.3-45,93.3-45z
		 M101.7-35.7h-5.1v-0.9h5.1V-35.7z M102.2-40.6c-0.3-0.3-0.6-0.7-0.8-1.1h-2.5c-0.3,0.4-0.5,0.7-0.8,1.1H102.2z"/>
</g>
<g>
	<path d="M51.2,36.2h-4.3v-7.3h4.1v0.8H48v2.3h2.9v0.8H48v2.5h3.3V36.2z"/>
	<path d="M57.5,36.2h-1v-3c0-1.1-0.4-1.6-1.3-1.6c-0.4,0-0.8,0.2-1.1,0.5c-0.3,0.3-0.4,0.7-0.4,1.2v3h-1V31h1v0.9h0
		c0.4-0.7,1.1-1,1.9-1c0.6,0,1.1,0.2,1.4,0.6c0.3,0.4,0.5,0.9,0.5,1.6V36.2z"/>
	<path d="M59.1,36.2v-7.8h1v7.8H59.1z"/>
	<path d="M61.8,29.1c0-0.2,0.1-0.3,0.2-0.4s0.3-0.2,0.5-0.2c0.2,0,0.3,0.1,0.5,0.2c0.1,0.1,0.2,0.2,0.2,0.4c0,0.2-0.1,0.3-0.2,0.4
		s-0.3,0.2-0.5,0.2c-0.2,0-0.3-0.1-0.5-0.2C61.9,29.4,61.8,29.3,61.8,29.1z M62,36.2V31h1v5.2H62z"/>
	<path d="M67.5,36.2c-0.2,0.1-0.5,0.2-0.9,0.2c-1,0-1.5-0.5-1.5-1.6v-3h-1V31h1v-1.3l1-0.3V31h1.4v0.8h-1.4v2.9
		c0,0.3,0.1,0.6,0.2,0.7c0.1,0.1,0.3,0.2,0.6,0.2c0.2,0,0.4-0.1,0.6-0.2V36.2z"/>
	<path d="M73.3,33.8h-4c0,0.6,0.2,1,0.5,1.3c0.3,0.3,0.8,0.5,1.3,0.5c0.6,0,1.2-0.2,1.8-0.6v0.8c-0.5,0.3-1.2,0.5-2,0.5
		c-0.8,0-1.5-0.2-1.9-0.7c-0.5-0.5-0.7-1.1-0.7-2c0-0.8,0.3-1.5,0.8-2s1.1-0.8,1.9-0.8c0.7,0,1.3,0.2,1.8,0.7s0.6,1.1,0.6,1.8V33.8z
		 M72.3,33.1c0-0.5-0.1-0.8-0.4-1.1c-0.2-0.3-0.6-0.4-1-0.4c-0.4,0-0.8,0.1-1,0.4c-0.3,0.3-0.5,0.6-0.6,1.1H72.3z"/>
	<path d="M79.5,36.2h-1v-3c0-1.1-0.4-1.6-1.3-1.6c-0.4,0-0.8,0.2-1.1,0.5c-0.3,0.3-0.4,0.7-0.4,1.2v3h-1V31h1v0.9h0
		c0.4-0.7,1.1-1,1.9-1c0.6,0,1.1,0.2,1.4,0.6c0.3,0.4,0.5,0.9,0.5,1.6V36.2z"/>
	<path d="M84,35.7c0-0.2,0.1-0.3,0.2-0.4c0.1-0.1,0.3-0.2,0.5-0.2c0.2,0,0.4,0.1,0.5,0.2c0.1,0.1,0.2,0.3,0.2,0.4
		c0,0.2-0.1,0.3-0.2,0.4c-0.1,0.1-0.3,0.2-0.5,0.2c-0.2,0-0.3-0.1-0.5-0.2S84,35.9,84,35.7z"/>
	<path d="M90.8,36c-0.4,0.2-1,0.4-1.6,0.4c-0.8,0-1.5-0.2-2-0.7c-0.5-0.5-0.8-1.1-0.8-1.9c0-0.9,0.3-1.6,0.8-2.1
		c0.5-0.5,1.3-0.8,2.2-0.8c0.5,0,1,0.1,1.3,0.3V32c-0.4-0.3-0.9-0.4-1.3-0.4c-0.6,0-1,0.2-1.4,0.6c-0.4,0.4-0.5,0.9-0.5,1.5
		c0,0.6,0.2,1.1,0.5,1.4c0.3,0.3,0.8,0.5,1.4,0.5c0.5,0,1-0.1,1.4-0.4V36z"/>
	<path d="M97,36.2h-1v-3c0-1.1-0.4-1.6-1.3-1.6c-0.4,0-0.8,0.2-1.1,0.5c-0.3,0.3-0.4,0.7-0.4,1.2v3h-1V31h1v0.9h0
		c0.4-0.7,1.1-1,1.9-1c0.6,0,1.1,0.2,1.4,0.6c0.3,0.4,0.5,0.9,0.5,1.6V36.2z"/>
</g>
<path class="st2" d="M34.9,31.1C34.9,31.1,34.9,31.1,34.9,31.1C34.9,31.1,34.9,31.1,34.9,31.1c0,0.1-0.1,0.1-0.1,0.2
	c-0.5,0.6-1,1.2-1.5,1.8c-1.3,1.2-2.7,2.3-4.2,3.1c-0.5,0.3-1,0.5-1.6,0.7c-0.4,0.2-0.8,0.3-1.2,0.5c-0.1,0-0.1,0.1-0.2,0.1
	c-0.2,0.1-0.4,0.1-0.6,0.2c-0.2,0.1-0.4,0.1-0.7,0.2c-0.3,0.1-0.5,0.1-0.8,0.2c-0.2,0-0.4,0.1-0.6,0.1c-0.2,0-0.4,0.1-0.6,0.1
	c-0.1,0-0.2,0-0.3,0c-0.1,0-0.3,0-0.4,0c0,0,0,0,0,0c-0.1,0-0.3,0-0.4,0c-0.4,0-0.8,0-1.2,0c-0.1,0-0.2,0-0.3,0c-0.1,0-0.2,0-0.3,0
	c0,0-0.1,0-0.1,0c-0.2,0-0.3,0-0.5,0c-0.1,0-0.3,0-0.4,0c-0.1,0-0.2,0-0.3,0c-0.1,0-0.2,0-0.2,0c-1.1-0.2-2.3-0.4-3.4-0.8
	c-1.4-0.5-2.7-1.1-3.9-1.9c-1.5-1-2.8-2.1-4-3.4c-1.2-1.3-2.1-2.8-2.8-4.4c-0.5-1.1-0.9-2.2-1.1-3.3C3,24,2.9,23.5,2.8,23.1
	c0-0.3-0.1-0.5-0.1-0.8c0-0.2,0-0.4-0.1-0.6c0-0.2,0-0.4,0-0.5c0-0.3,0-0.6,0-0.9c0-0.3,0-0.6,0-0.9c0-0.2,0-0.4,0-0.6
	c0-0.1,0-0.3,0-0.4c0-0.1,0-0.2,0-0.4c0-0.1,0-0.2,0-0.3c0-0.2,0.1-0.4,0.1-0.7c0-0.2,0.1-0.5,0.1-0.7c0.2-0.8,0.4-1.5,0.6-2.2
	c0.3-0.9,0.7-1.7,1.1-2.5c0.5-0.9,1.1-1.8,1.7-2.7C7.7,7.4,9.2,6,11.1,4.9c0.5-0.3,1-0.6,1.5-0.8c0,0,0.1,0,0.1-0.1c0,0,0,0,0,0
	c0,0,0,0,0,0c0,0,0,0,0,0c-0.2,0.3-0.4,0.7-0.5,1c-0.1,0.3-0.2,0.5-0.3,0.8c-0.1,0.3-0.3,0.7-0.4,1c-0.3,0.8-0.5,1.5-0.7,2.3
	c-0.2,0.7-0.4,1.4-0.5,2.1c-0.1,0.3-0.1,0.6-0.1,0.9c0,0.3-0.1,0.5-0.1,0.8c-0.1,0.4-0.1,0.8-0.1,1.2c0,0.1,0,0.3,0,0.4
	c0,0.3,0,0.6,0,0.9c0,0,0,0.1,0,0.1c0,0.2,0,0.4,0,0.6c0,0.2,0,0.4,0.1,0.5c0,0.2,0,0.4,0.1,0.5c0,0.3,0.1,0.5,0.1,0.7
	c0.1,0.6,0.3,1.2,0.5,1.8c0.1,0.4,0.3,0.8,0.5,1.1c0.6,1.1,1.2,2.2,1.9,3.2c0.6,0.8,1.2,1.5,1.9,2.2c1.1,1.1,2.3,2.1,3.7,2.9
	c1.2,0.8,2.5,1.4,3.9,1.9c0.6,0.2,1.2,0.4,1.9,0.6c0.4,0.1,0.7,0.2,1.1,0.2c0.2,0,0.5,0.1,0.7,0.1c0.2,0,0.4,0.1,0.5,0.1
	c0.2,0,0.4,0,0.6,0.1c0.2,0,0.3,0,0.5,0c0.1,0,0.2,0,0.3,0c0.1,0,0.2,0,0.2,0c0.3,0,0.6,0,0.9,0c0,0,0,0,0.1,0c0.3,0,0.5,0,0.8,0
	c0.2,0,0.3,0,0.5,0c0.1,0,0.2,0,0.3,0c0.1,0,0.2,0,0.2,0c0.2,0,0.5-0.1,0.7-0.1c0.6-0.1,1.2-0.3,1.8-0.5c0.2-0.1,0.4-0.2,0.6-0.3
	C34.6,31.2,34.7,31.2,34.9,31.1C34.9,31.1,34.9,31.1,34.9,31.1z"/>
<path class="st2" d="M38.8,20.1c0,0.3,0,0.6,0,0.9c0,0.3,0,0.5-0.1,0.8c-0.1,0.5-0.2,0.9-0.3,1.3c-0.1,0.4-0.3,0.9-0.6,1.3
	c-0.6,1-1.4,1.8-2.5,2.2c-0.4,0.2-0.8,0.3-1.2,0.3c-0.2,0-0.5,0.1-0.7,0.1c-0.2,0-0.4,0-0.7,0c-0.2,0-0.4,0-0.6,0
	c-0.1,0-0.2,0-0.3,0c-0.1,0-0.2,0-0.2,0c-0.2,0-0.5-0.1-0.7-0.1c-0.3-0.1-0.5-0.1-0.8-0.2c-0.6-0.2-1.1-0.4-1.7-0.6
	c-0.8-0.4-1.6-0.8-2.4-1.3c-0.6-0.3-1.2-0.7-1.7-1.1c-0.9-0.7-1.8-1.5-2.6-2.3c-0.5-0.5-0.9-1-1.4-1.6c-0.5-0.7-1.1-1.4-1.6-2.2
	c-0.5-0.8-1-1.6-1.4-2.4c-0.4-0.7-0.7-1.5-1-2.3c-0.2-0.6-0.4-1.2-0.5-1.8c-0.1-0.3-0.1-0.6-0.2-0.9c0-0.3-0.1-0.6-0.1-0.8
	c0-0.2,0-0.5-0.1-0.7c0-0.2,0-0.3,0-0.5c0-0.4,0-0.7,0-1.1c0-0.3,0.1-0.6,0.1-0.8C15.7,6,15.9,5.6,16,5.3c0.2-0.4,0.4-0.8,0.7-1.1
	c0.6-0.7,1.3-1.3,2.2-1.6c0.3-0.1,0.6-0.2,0.9-0.3c0.1,0,0.3,0,0.4-0.1c0.2,0,0.4,0,0.6,0c0.1,0,0.3,0,0.4,0c0.1,0,0.2,0,0.3,0
	c0,0,0.1,0,0.1,0c0.2,0,0.4,0,0.5,0c0.1,0,0.2,0,0.4,0c0.1,0,0.2,0,0.3,0c0.1,0,0.2,0,0.2,0c0.3,0,0.5,0.1,0.8,0.1
	c0.6,0.1,1.3,0.3,1.9,0.5c1.3,0.4,2.5,0.9,3.6,1.5c1.1,0.6,2.1,1.3,3.1,2.2c0,0,0.1,0.1,0.1,0.1c0,0,0,0,0,0c0,0,0,0,0,0
	c0,0-0.1-0.1-0.1-0.1c-0.4-0.2-0.8-0.4-1.2-0.6c-0.5-0.2-1-0.4-1.5-0.5c-0.2,0-0.4-0.1-0.6-0.1c-0.2,0-0.4,0-0.5-0.1
	c-0.2,0-0.5,0-0.7,0c-0.5,0-0.9,0.2-1.3,0.4c-0.4,0.3-0.7,0.7-0.9,1.2c-0.1,0.1-0.1,0.3-0.1,0.5c-0.1,0.3-0.1,0.7,0,1
	c0,0.1,0,0.2,0,0.3c0,0.3,0.1,0.5,0.1,0.8c0.1,0.6,0.3,1.1,0.6,1.6c0.5,1,1.1,2,1.9,2.9c0.8,0.9,1.7,1.6,2.7,2.2
	c0.5,0.3,1.1,0.6,1.7,0.7c0.2,0.1,0.4,0.1,0.6,0.2c0.2,0,0.4,0.1,0.6,0.1c0.1,0,0.2,0,0.3,0c0.4,0,0.8-0.1,1.1-0.3
	c0.4-0.2,0.7-0.5,0.9-0.8c0.2-0.3,0.3-0.5,0.4-0.8c0.1-0.3,0.1-0.5,0.1-0.8c0-0.3,0-0.6,0-0.9c0-0.2,0-0.5-0.1-0.7
	c-0.1-0.7-0.3-1.4-0.6-2.1c0,0,0-0.1,0-0.1c0,0,0,0,0,0c0,0,0,0,0,0c0,0,0,0,0.1,0.1c0.1,0.2,0.3,0.4,0.4,0.7
	c0.8,1.4,1.4,2.8,1.8,4.3c0.1,0.4,0.2,0.8,0.3,1.3c0.1,0.3,0.1,0.5,0.1,0.8c0,0.2,0.1,0.5,0.1,0.7c0,0.2,0,0.5,0.1,0.7c0,0,0,0,0,0
	C38.8,19.5,38.8,19.8,38.8,20.1z"/>
<text transform="matrix(1 0 0 1 45.9614 20.7663)" class="st3 st4 st5">进名校</text>
</svg>
